<svg xmlns="http://www.w3.org/2000/svg" version="1.1" xmlns:xlink="http://www.w3.org/1999/xlink" xmlns:svgjs="http://svgjs.dev/svgjs" width="1500" height="602" viewBox="0 0 1500 602"><g transform="matrix(1,0,0,1,-0.9090909090911055,-0.4419116998063828)"><svg viewBox="0 0 396 159" data-background-color="#ffffff" preserveAspectRatio="xMidYMid meet" height="602" width="1500" xmlns="http://www.w3.org/2000/svg" xmlns:xlink="http://www.w3.org/1999/xlink"><g id="tight-bounds" transform="matrix(1,0,0,1,0.24000000000003752,0.11671754197544715)"><svg viewBox="0 0 395.5199999999999 158.7665649160491" height="158.7665649160491" width="395.5199999999999"><g><svg viewBox="0 0 395.5199999999999 158.7665649160491" height="158.7665649160491" width="395.5199999999999"><g><svg viewBox="0 0 395.5199999999999 158.7665649160491" height="158.7665649160491" width="395.5199999999999"><g id="textblocktransform"><svg viewBox="0 0 395.5199999999999 158.7665649160491" height="158.7665649160491" width="395.5199999999999" id="textblock"><g><svg viewBox="0 0 395.5199999999999 102.76837751237983" height="102.76837751237983" width="395.5199999999999"><g transform="matrix(1,0,0,1,0,0)"><svg width="395.5199999999999" viewBox="1 -37.5 171.64 44.6" height="102.76837751237983" data-palette-color="#000000"><path d="M36.05-37.5L61.25-37.5Q61.25-33.75 61.25-30 61.25-26.25 61.25-22.5 61.25-18.75 61.25-15 61.25-11.25 61.25-7.5 61.25-3.75 61.25 0L61.25 0 42 0Q42-5.2 42-10.4 42-15.6 42-20.8L42-20.8Q42-20.8 42-20.83 42-20.85 41.98-20.85 41.95-20.85 41.93-20.85 41.9-20.85 41.9-20.83 41.9-20.8 41.9-20.8L41.9-20.8 37 0 24.25 0Q23-5.2 21.8-10.35 20.6-15.5 19.35-20.65L19.35-20.65Q19.35-20.65 19.35-20.68 19.35-20.7 19.33-20.7 19.3-20.7 19.3-20.7 19.3-20.7 19.28-20.7 19.25-20.7 19.25-20.68 19.25-20.65 19.25-20.65L19.25-20.65Q19.25-15.5 19.25-10.35 19.25-5.2 19.25 0L19.25 0 1 0Q1-3.75 1-7.53 1-11.3 1-15.08 1-18.85 1-22.63 1-26.4 1-30.15L1-30.15Q1-32 1-33.83 1-35.65 1-37.5L1-37.5 27.65-37.5Q28.4-34.4 29.1-31.33 29.8-28.25 30.53-25.15 31.25-22.05 31.95-18.95L31.95-18.95Q31.95-18.9 31.98-18.88 32-18.85 32.02-18.88 32.05-18.9 32.05-18.95L32.05-18.95 36.05-37.5ZM80.55 0L63.25 0Q63.25-2.3 63.25-4.58 63.25-6.85 63.25-9.13 63.25-11.4 63.25-13.65L63.25-13.65Q63.25-14.6 63.25-15.55 63.25-16.5 63.25-17.45L63.25-17.45Q66.15-17.45 69.02-17.45 71.9-17.45 74.8-17.45 77.7-17.45 80.55-17.45L80.55-17.45Q80.55-14.55 80.55-11.65 80.55-8.75 80.55-5.83 80.55-2.9 80.55 0L80.55 0ZM63.25-17.45L63.25-17.45Q63.25-20.85 63.25-24.25 63.25-27.65 63.25-31L63.25-31 80.55-31Q80.55-29.35 80.55-27.7 80.55-26.05 80.55-24.4 80.55-22.75 80.55-21.1L80.55-21.1Q80.55-21.1 80.52-21.08 80.5-21.05 80.5-21.05L80.5-21.05Q76.2-20.15 71.87-19.25 67.55-18.35 63.25-17.45ZM126.2-31L126.2-31 108.9-31Q108.9-30.45 108.9-29.38 108.9-28.3 108.9-27.75L108.9-27.75Q108.9-27.7 108.9-27.65 108.9-27.6 108.87-27.6 108.84-27.6 108.8-27.7L108.8-27.7Q108.15-28.65 107.22-29.33 106.3-30 105.2-30.48 104.09-30.95 102.92-31.23 101.75-31.5 100.59-31.63 99.45-31.75 98.45-31.75L98.45-31.75Q96.3-31.75 94.22-31.33 92.15-30.9 90.32-30.05 88.5-29.2 86.97-27.98 85.45-26.75 84.34-25.15 83.25-23.55 82.64-21.65 82.05-19.75 82.05-17.5L82.05-17.5Q82.05-14.15 83.32-11.53 84.59-8.9 86.77-7.08 88.95-5.25 91.75-4.28 94.55-3.3 97.59-3.3L97.59-3.3Q99.7-3.3 101.75-3.55 103.8-3.8 105.9-5.05L105.9-5.05 108.9-16.8Q107.95-13.9 103.95-13.9L103.95-13.9Q102.45-13.9 101.3-14.33 100.15-14.75 99.47-15.55 98.8-16.35 98.8-17.5L98.8-17.5Q98.8-18.6 99.45-19.35 100.09-20.1 101.27-20.48 102.45-20.85 103.95-20.85L103.95-20.85Q105.05-20.85 105.95-20.63 106.84-20.4 107.52-19.98 108.2-19.55 108.55-18.9 108.9-18.25 108.9-17.35L108.9-17.35 108.9-8.1Q108.9-6.2 108.15-4.9 107.4-3.6 106.09-2.8 104.8-2 103.12-1.63 101.45-1.25 99.55-1.25L99.55-1.25Q97.25-1.25 94.9-1.7 92.55-2.15 90.47-2.93 88.39-3.7 86.95-4.65L86.95-4.65 86.95 3.3Q90.34 5.2 94.65 6.15 98.95 7.1 103.34 7.1L103.34 7.1Q106.8 7.1 110.15 6.53 113.5 5.95 116.4 4.85 119.3 3.75 121.5 2.08 123.7 0.4 124.95-1.78 126.2-3.95 126.2-6.65L126.2-6.65Q126.2-12.75 126.2-18.85 126.2-24.95 126.2-31ZM150.14 1.5L150.14 1.5Q147.04 1.5 144.14 1.05 141.24 0.6 138.74-0.33 136.24-1.25 134.19-2.65 132.14-4.05 130.69-5.93 129.24-7.8 128.44-10.18 127.64-12.55 127.64-15.45L127.64-15.45Q127.64-18.85 128.77-21.58 129.89-24.3 131.97-26.35 134.04-28.4 136.84-29.78 139.64-31.15 143.02-31.83 146.39-32.5 150.14-32.5L150.14-32.5Q154.84-32.5 158.92-31.43 162.99-30.35 166.07-28.23 169.14-26.1 170.89-22.9 172.64-19.7 172.64-15.45L172.64-15.45Q172.64-11.2 170.89-8.03 169.14-4.85 166.07-2.73 162.99-0.6 158.92 0.45 154.84 1.5 150.14 1.5ZM150.19-11.75L150.19-11.75Q153.29-11.75 154.59-12.95 155.89-14.15 155.89-15.55L155.89-15.55Q155.89-16.2 155.59-16.85 155.29-17.5 154.64-18.05 153.99-18.6 152.89-18.93 151.79-19.25 150.19-19.25L150.19-19.25Q148.59-19.25 147.47-18.93 146.34-18.6 145.67-18.05 144.99-17.5 144.69-16.85 144.39-16.2 144.39-15.5L144.39-15.5Q144.39-14.8 144.69-14.13 144.99-13.45 145.69-12.93 146.39-12.4 147.49-12.08 148.59-11.75 150.19-11.75Z" opacity="1" transform="matrix(1,0,0,1,0,0)" fill="#000000" class="wordmark-text-0" data-fill-palette-color="primary" id="text-0"></path></svg></g></svg></g><g transform="matrix(1,0,0,1,0,127.02952500199241)"><svg viewBox="0 0 395.5199999999999 31.737039914056687" height="31.737039914056687" width="395.5199999999999"><g transform="matrix(1,0,0,1,0,0)"><svg width="395.5199999999999" viewBox="2.85 -37.7 604.98 48.550000000000004" height="31.737039914056687" data-palette-color="#89939e"><path d="M15.2-27.15Q18.05-27.15 19.7-25.1 21.35-23.05 21.35-19.6L21.35-19.6 21.35 0 15.2 0 15.2-18.9Q15.2-20.8 14.68-21.63 14.15-22.45 13.15-22.45L13.15-22.45Q11.05-22.45 9-18.5L9-18.5 9 0 2.85 0 2.85-37 9-37.65 9-23.3Q10.25-25.25 11.73-26.2 13.2-27.15 15.2-27.15L15.2-27.15ZM45.75-13.85Q45.75-13.4 45.6-11.3L45.6-11.3 31.95-11.3Q32.15-7.2 33.37-5.58 34.6-3.95 36.85-3.95L36.85-3.95Q38.4-3.95 39.65-4.48 40.9-5 42.35-6.15L42.35-6.15 44.9-2.65Q41.4 0.75 36.5 0.75L36.5 0.75Q31.3 0.75 28.52-2.85 25.75-6.45 25.75-13L25.75-13Q25.75-19.55 28.4-23.35 31.05-27.15 35.9-27.15L35.9-27.15Q40.55-27.15 43.15-23.78 45.75-20.4 45.75-13.85L45.75-13.85ZM39.75-15.3L39.75-15.65Q39.75-19.4 38.85-21.13 37.95-22.85 35.95-22.85L35.95-22.85Q34.1-22.85 33.12-21.18 32.15-19.5 31.95-15.3L31.95-15.3 39.75-15.3ZM55.65 0.75Q52.95 0.75 51.37-0.93 49.8-2.6 49.8-5.4L49.8-5.4 49.8-37.05 55.95-37.7 55.95-5.65Q55.95-5 56.25-4.6 56.55-4.2 57.15-4.2L57.15-4.2Q57.5-4.2 57.82-4.3 58.15-4.4 58.25-4.4L58.25-4.4 59.45-0.2Q57.75 0.75 55.65 0.75L55.65 0.75ZM74.69-27.15Q78.59-27.15 80.59-23.58 82.59-20 82.59-13.3L82.59-13.3Q82.59-6.8 80.32-3.03 78.04 0.75 73.99 0.75L73.99 0.75Q70.79 0.75 68.64-2.1L68.64-2.1 68.64 10.15 62.49 10.85 62.49-26.45 67.94-26.45 68.19-23.25Q69.49-25.25 71.09-26.2 72.69-27.15 74.69-27.15L74.69-27.15ZM72.34-3.95Q74.24-3.95 75.24-6.13 76.24-8.3 76.24-13.25L76.24-13.25Q76.24-18.45 75.39-20.5 74.54-22.55 72.74-22.55L72.74-22.55Q70.44-22.55 68.64-19.25L68.64-19.25 68.64-6.45Q70.24-3.95 72.34-3.95L72.34-3.95ZM94.54-27.15Q99.24-27.15 102.49-24.05L102.49-24.05 100.14-20.7Q98.74-21.7 97.49-22.2 96.24-22.7 94.94-22.7L94.94-22.7Q93.49-22.7 92.67-21.93 91.84-21.15 91.84-19.8L91.84-19.8Q91.84-18.45 92.77-17.63 93.69-16.8 96.49-15.7L96.49-15.7Q99.94-14.35 101.59-12.5 103.24-10.65 103.24-7.55L103.24-7.55Q103.24-3.7 100.54-1.48 97.84 0.75 93.69 0.75L93.69 0.75Q90.99 0.75 88.72-0.23 86.44-1.2 84.74-2.95L84.74-2.95 87.74-6.25Q90.54-3.8 93.44-3.8L93.44-3.8Q95.09-3.8 96.04-4.67 96.99-5.55 96.99-7.1L96.99-7.1Q96.99-8.25 96.59-8.97 96.19-9.7 95.19-10.33 94.19-10.95 92.19-11.7L92.19-11.7Q88.74-13.05 87.27-14.85 85.79-16.65 85.79-19.45L85.79-19.45Q85.79-22.8 88.17-24.98 90.54-27.15 94.54-27.15L94.54-27.15ZM128.09-5L130.24-1.2Q127.79 0.75 124.49 0.75L124.49 0.75Q121.04 0.75 119.24-1.23 117.44-3.2 117.44-6.6L117.44-6.6 117.44-22 114.34-22 114.34-26.45 117.44-26.45 117.44-32.3 123.59-33.05 123.59-26.45 128.59-26.45 127.99-22 123.59-22 123.59-6.6Q123.59-4.2 125.64-4.2L125.64-4.2Q126.29-4.2 126.79-4.38 127.29-4.55 128.09-5L128.09-5ZM151.63-13.85Q151.63-13.4 151.48-11.3L151.48-11.3 137.83-11.3Q138.03-7.2 139.26-5.58 140.48-3.95 142.73-3.95L142.73-3.95Q144.28-3.95 145.53-4.48 146.78-5 148.23-6.15L148.23-6.15 150.78-2.65Q147.28 0.75 142.38 0.75L142.38 0.75Q137.18 0.75 134.41-2.85 131.63-6.45 131.63-13L131.63-13Q131.63-19.55 134.28-23.35 136.93-27.15 141.78-27.15L141.78-27.15Q146.43-27.15 149.03-23.78 151.63-20.4 151.63-13.85L151.63-13.85ZM145.63-15.3L145.63-15.65Q145.63-19.4 144.73-21.13 143.83-22.85 141.83-22.85L141.83-22.85Q139.98-22.85 139.01-21.18 138.03-19.5 137.83-15.3L137.83-15.3 145.63-15.3ZM172.83-6.4Q172.83-5.1 173.18-4.48 173.53-3.85 174.33-3.45L174.33-3.45 173.08 0.65Q171.03 0.4 169.81-0.45 168.58-1.3 167.98-3.05L167.98-3.05Q165.68 0.75 161.53 0.75L161.53 0.75Q158.23 0.75 156.28-1.48 154.33-3.7 154.33-7.4L154.33-7.4Q154.33-11.7 157.01-13.95 159.68-16.2 164.78-16.2L164.78-16.2 166.83-16.2 166.83-18.05Q166.83-20.55 165.96-21.58 165.08-22.6 163.13-22.6L163.13-22.6Q160.78-22.6 157.28-21.3L157.28-21.3 155.88-25.3Q157.88-26.2 160.03-26.68 162.18-27.15 164.13-27.15L164.13-27.15Q172.83-27.15 172.83-18.35L172.83-18.35 172.83-6.4ZM163.18-3.7Q165.58-3.7 166.83-7L166.83-7 166.83-12.55 165.38-12.55Q162.83-12.55 161.66-11.4 160.48-10.25 160.48-7.85L160.48-7.85Q160.48-5.8 161.18-4.75 161.88-3.7 163.18-3.7L163.18-3.7ZM202.28-27.15Q204.93-27.15 206.53-25.1 208.13-23.05 208.13-19.6L208.13-19.6 208.13 0 202.08 0 202.08-18.95Q202.08-20.85 201.58-21.68 201.08-22.5 200.13-22.5L200.13-22.5Q198.18-22.5 196.38-18.8L196.38-18.8 196.38 0 190.38 0 190.38-18.95Q190.38-22.5 188.48-22.5L188.48-22.5Q186.43-22.5 184.68-18.8L184.68-18.8 184.68 0 178.63 0 178.63-26.45 183.98-26.45 184.38-23.05Q186.98-27.15 190.63-27.15L190.63-27.15Q192.48-27.15 193.83-26 195.18-24.85 195.88-22.75L195.88-22.75Q198.53-27.15 202.28-27.15L202.28-27.15ZM247.12-27.15Q249.77-27.15 251.37-25.1 252.97-23.05 252.97-19.6L252.97-19.6 252.97 0 246.92 0 246.92-18.95Q246.92-20.85 246.42-21.68 245.92-22.5 244.97-22.5L244.97-22.5Q243.02-22.5 241.22-18.8L241.22-18.8 241.22 0 235.22 0 235.22-18.95Q235.22-22.5 233.32-22.5L233.32-22.5Q231.27-22.5 229.52-18.8L229.52-18.8 229.52 0 223.47 0 223.47-26.45 228.82-26.45 229.22-23.05Q231.82-27.15 235.47-27.15L235.47-27.15Q237.32-27.15 238.67-26 240.02-24.85 240.72-22.75L240.72-22.75Q243.37-27.15 247.12-27.15L247.12-27.15ZM267.87-27.15Q272.87-27.15 275.65-23.65 278.42-20.15 278.42-13.25L278.42-13.25Q278.42-6.65 275.62-2.95 272.82 0.75 267.87 0.75L267.87 0.75Q262.92 0.75 260.12-2.88 257.32-6.5 257.32-13.25L257.32-13.25Q257.32-19.95 260.12-23.55 262.92-27.15 267.87-27.15L267.87-27.15ZM267.87-22.5Q265.72-22.5 264.72-20.38 263.72-18.25 263.72-13.25L263.72-13.25Q263.72-8.2 264.72-6.08 265.72-3.95 267.87-3.95L267.87-3.95Q270.02-3.95 271.02-6.08 272.02-8.2 272.02-13.25L272.02-13.25Q272.02-18.3 271.02-20.4 270.02-22.5 267.87-22.5L267.87-22.5ZM295.37-26.45L301.42-26.45 294.52 0 287.27 0 280.17-26.45 286.52-26.45 290.87-4.95 295.37-26.45ZM323.17-13.85Q323.17-13.4 323.02-11.3L323.02-11.3 309.37-11.3Q309.57-7.2 310.79-5.58 312.02-3.95 314.27-3.95L314.27-3.95Q315.82-3.95 317.07-4.48 318.32-5 319.77-6.15L319.77-6.15 322.32-2.65Q318.82 0.75 313.92 0.75L313.92 0.75Q308.72 0.75 305.94-2.85 303.17-6.45 303.17-13L303.17-13Q303.17-19.55 305.82-23.35 308.47-27.15 313.32-27.15L313.32-27.15Q317.97-27.15 320.57-23.78 323.17-20.4 323.17-13.85L323.17-13.85ZM317.17-15.3L317.17-15.65Q317.17-19.4 316.27-21.13 315.37-22.85 313.37-22.85L313.37-22.85Q311.52-22.85 310.54-21.18 309.57-19.5 309.37-15.3L309.37-15.3 317.17-15.3ZM339.71-7.05Q341.31-7.05 342.34-5.98 343.36-4.9 343.36-3.25L343.36-3.25Q343.36-2.55 343.14-1.78 342.91-1 342.56-0.08 342.21 0.85 342.11 1.2L342.11 1.2 339.46 8.55 336.01 8.55 337.81 0.1Q336.01-1.2 336.01-3.2L336.01-3.2Q336.01-4.85 337.06-5.95 338.11-7.05 339.71-7.05L339.71-7.05ZM379.66-26.45L385.36-26.45 380.81 0 373.31 0 370.36-20.85 367.46 0 360.01 0 355.36-26.45 361.31-26.45 364.01-4.6 367.36-26.45 373.61-26.45 376.81-4.6 379.66-26.45ZM398.25-27.15Q403.25-27.15 406.03-23.65 408.8-20.15 408.8-13.25L408.8-13.25Q408.8-6.65 406-2.95 403.2 0.75 398.25 0.75L398.25 0.75Q393.3 0.75 390.5-2.88 387.7-6.5 387.7-13.25L387.7-13.25Q387.7-19.95 390.5-23.55 393.3-27.15 398.25-27.15L398.25-27.15ZM398.25-22.5Q396.1-22.5 395.1-20.38 394.1-18.25 394.1-13.25L394.1-13.25Q394.1-8.2 395.1-6.08 396.1-3.95 398.25-3.95L398.25-3.95Q400.4-3.95 401.4-6.08 402.4-8.2 402.4-13.25L402.4-13.25Q402.4-18.3 401.4-20.4 400.4-22.5 398.25-22.5L398.25-22.5ZM425-27.1Q426.15-27.1 427.05-26.75L427.05-26.75 426.05-20.85Q425.05-21.1 424.2-21.1L424.2-21.1Q422.3-21.1 421.2-19.45 420.1-17.8 419.5-14.55L419.5-14.55 419.5 0 413.35 0 413.35-26.45 418.7-26.45 419.15-21.85Q421-27.1 425-27.1L425-27.1ZM429.9-37.05L436.05-37.7 436.05 0 429.9 0 429.9-37.05ZM443.4-26.45L449.4-26.45 442.4-14.75 450 0 443.4 0 436.3-14.45 443.4-26.45ZM472.09-33.05Q470.69-33.05 470.02-32.3 469.34-31.55 469.34-30L469.34-30 469.34-26.45 474.39-26.45 473.69-22 469.34-22 469.34 0 463.19 0 463.19-22 459.89-22 459.89-26.45 463.19-26.45 463.19-29.8Q463.19-33.4 465.29-35.55 467.39-37.7 471.29-37.7L471.29-37.7Q474.34-37.7 477.19-36.2L477.19-36.2 475.49-32.2Q473.74-33.05 472.09-33.05L472.09-33.05ZM486.59-27.15Q491.59-27.15 494.37-23.65 497.14-20.15 497.14-13.25L497.14-13.25Q497.14-6.65 494.34-2.95 491.54 0.75 486.59 0.75L486.59 0.75Q481.64 0.75 478.84-2.88 476.04-6.5 476.04-13.25L476.04-13.25Q476.04-19.95 478.84-23.55 481.64-27.15 486.59-27.15L486.59-27.15ZM486.59-22.5Q484.44-22.5 483.44-20.38 482.44-18.25 482.44-13.25L482.44-13.25Q482.44-8.2 483.44-6.08 484.44-3.95 486.59-3.95L486.59-3.95Q488.74-3.95 489.74-6.08 490.74-8.2 490.74-13.25L490.74-13.25Q490.74-18.3 489.74-20.4 488.74-22.5 486.59-22.5L486.59-22.5ZM513.34-27.1Q514.49-27.1 515.39-26.75L515.39-26.75 514.39-20.85Q513.39-21.1 512.54-21.1L512.54-21.1Q510.64-21.1 509.54-19.45 508.44-17.8 507.84-14.55L507.84-14.55 507.84 0 501.69 0 501.69-26.45 507.04-26.45 507.49-21.85Q509.34-27.1 513.34-27.1L513.34-27.1ZM540.28-26.45L545.99-26.45 541.43 0 533.93 0 530.99-20.85 528.09 0 520.63 0 515.99-26.45 521.93-26.45 524.63-4.6 527.99-26.45 534.24-26.45 537.43-4.6 540.28-26.45ZM566.38-6.4Q566.38-5.1 566.73-4.48 567.08-3.85 567.88-3.45L567.88-3.45 566.63 0.65Q564.58 0.4 563.36-0.45 562.13-1.3 561.53-3.05L561.53-3.05Q559.23 0.75 555.08 0.75L555.08 0.75Q551.78 0.75 549.83-1.48 547.88-3.7 547.88-7.4L547.88-7.4Q547.88-11.7 550.56-13.95 553.23-16.2 558.33-16.2L558.33-16.2 560.38-16.2 560.38-18.05Q560.38-20.55 559.51-21.58 558.63-22.6 556.68-22.6L556.68-22.6Q554.33-22.6 550.83-21.3L550.83-21.3 549.43-25.3Q551.43-26.2 553.58-26.68 555.73-27.15 557.68-27.15L557.68-27.15Q566.38-27.15 566.38-18.35L566.38-18.35 566.38-6.4ZM556.73-3.7Q559.13-3.7 560.38-7L560.38-7 560.38-12.55 558.93-12.55Q556.38-12.55 555.21-11.4 554.03-10.25 554.03-7.85L554.03-7.85Q554.03-5.8 554.73-4.75 555.43-3.7 556.73-3.7L556.73-3.7ZM583.83-27.1Q584.98-27.1 585.88-26.75L585.88-26.75 584.88-20.85Q583.88-21.1 583.03-21.1L583.03-21.1Q581.13-21.1 580.03-19.45 578.93-17.8 578.33-14.55L578.33-14.55 578.33 0 572.18 0 572.18-26.45 577.53-26.45 577.98-21.85Q579.83-27.1 583.83-27.1L583.83-27.1ZM601.68-37.7L607.83-37.05 607.83 0 602.38 0 602.08-3.05Q599.73 0.75 596.03 0.75L596.03 0.75Q591.93 0.75 589.75-2.93 587.58-6.6 587.58-13.2L587.58-13.2Q587.58-17.4 588.7-20.58 589.83-23.75 591.83-25.45 593.83-27.15 596.43-27.15L596.43-27.15Q599.63-27.15 601.68-24.5L601.68-24.5 601.68-37.7ZM597.78-3.9Q598.93-3.9 599.85-4.7 600.78-5.5 601.68-7L601.68-7 601.68-19.85Q600.08-22.55 598.03-22.55L598.03-22.55Q593.98-22.55 593.98-13.25L593.98-13.25Q593.98-8.2 594.98-6.05 595.98-3.9 597.78-3.9L597.78-3.9Z" opacity="1" transform="matrix(1,0,0,1,0,0)" fill="#89939e" class="slogan-text-1" data-fill-palette-color="secondary" id="text-1"></path></svg></g></svg></g></svg></g></svg></g><g></g></svg></g><defs></defs></svg><rect width="395.5199999999999" height="158.7665649160491" fill="none" stroke="none" visibility="hidden"></rect></g></svg></g></svg>